<?xml version="1.0" encoding="UTF-8" standalone="no" ?>
<!DOCTYPE svg PUBLIC "-//W3C//DTD SVG 1.1//EN" "http://www.w3.org/Graphics/SVG/1.1/DTD/svg11.dtd">
<svg xmlns="http://www.w3.org/2000/svg" xmlns:xlink="http://www.w3.org/1999/xlink" version="1.1" width="1280" height="1024" viewBox="0 0 1280 1024" xml:space="preserve">
<desc>Created with Fabric.js 5.3.0</desc>
<defs>
</defs>
<g transform="matrix(1 0 0 1 640 512)" id="background-logo"  >
<rect style="stroke: none; stroke-width: 0; stroke-dasharray: none; stroke-linecap: butt; stroke-dashoffset: 0; stroke-linejoin: miter; stroke-miterlimit: 4; fill: rgb(255,255,255); fill-opacity: 0; fill-rule: nonzero; opacity: 1;"  paint-order="stroke"  x="-640" y="-512" rx="0" ry="0" width="1280" height="1024" />
</g>
<g transform="matrix(3.7321164941740497 0 0 3.732116494174052 639.9999999999999 512)" id="logo-logo"  >
<g style=""  paint-order="stroke"   >
		<g transform="matrix(0.10192929894201816 0 0 -0.10192929894201816 -15.678536021670425 0)"  >
<path style="stroke: none; stroke-width: 1; stroke-dasharray: none; stroke-linecap: butt; stroke-dashoffset: 0; stroke-linejoin: miter; stroke-miterlimit: 4; fill: rgb(126,210,179); fill-rule: nonzero; opacity: 1;"  paint-order="stroke"  transform=" translate(-1158.732244120122, -805.4499999999998)" d="M 872.539 236.66 L 1951.63 236.66 C 1951.63 236.66 2097.98 244.75 2205.58 307.39099999999996 C 2301.0699999999997 362.99999999999994 2365.94 461.64799999999997 2270.86 635.8319999999999 L 2270.9900000000002 635.8319999999999 C 2269.61 638.2929999999999 2268.21 640.7619999999998 2266.84 643.2229999999998 C 2266.82 643.2539999999998 2266.8 643.2929999999999 2266.78 643.3319999999999 L 2266.23 644.2969999999999 C 2220.03 726.6519999999999 2173.13 809.953 2128.55 888.6329999999999 C 2063.44 1003.5699999999999 2003.3000000000002 1108.6399999999999 1957.6100000000001 1186.4499999999998 C 1872.0000000000002 1332.2099999999998 1762.93 1443.5299999999997 1633.44 1517.3199999999997 C 1505.14 1590.4299999999996 1389.3000000000002 1608.5299999999997 1314.7 1610.8299999999997 L 1312.54 1610.8999999999996 L 1310.3799999999999 1610.8299999999997 C 1241.03 1608.6899999999996 1132.9399999999998 1592.6499999999996 1011.8499999999999 1528.3999999999996 C 890.7029999999999 1464.1099999999997 786.2699999999999 1367.2699999999995 701.4449999999999 1240.5299999999997 C 689.5269999999999 1222.7299999999998 678.102 1204.5299999999997 667.4799999999999 1186.4599999999998 C 499.703 900.762 130.012 234.578 57.6016 103.941 L 0 0 L 118.828 0 L 622.203 0 L 663.3399999999999 0 L 683.3589999999999 35.9492 C 841.578 320.059 1054.03 699.328 1167.61 892.715 C 1200.9199999999998 949.453 1239.4399999999998 991.289 1278.1599999999999 1013.44 C 1286.1399999999999 1018.0100000000001 1294.1299999999999 1021.8000000000001 1302.08 1024.64 C 1304.54 1025.5200000000002 1310.03 1026.48 1312.79 1026.65 C 1314.96 1026.5600000000002 1319.82 1025.7800000000002 1323.01 1024.64 C 1356.74 1012.5800000000002 1391.41 984.5430000000001 1423.24 943.5740000000001 C 1427.98 937.4730000000001 1433.11 930.3320000000001 1439.36 921.094 L 1439.52 920.859 L 1439.69 920.629 L 1440.1000000000001 920.0120000000001 L 1442.0000000000002 917.2270000000001 L 1442.5600000000002 916.426 L 1444.9 912.9300000000001 L 1445.0600000000002 912.6880000000001 L 1445.93 911.3480000000001 L 1446.96 909.7660000000001 C 1451.2 903.1450000000001 1454.49 897.797 1457.44 892.7660000000001 C 1495.9 827.3050000000001 1545.71 740.4490000000001 1600.8500000000001 643.3320000000001 L 1105.87 643.3320000000001 L 872.539 236.66" stroke-linecap="round" />
</g>
		<g transform="matrix(0.10192929894201816 0 0 -0.10192929894201816 94.7702946308255 72.75570657462731)"  >
<path style="stroke: none; stroke-width: 1; stroke-dasharray: none; stroke-linecap: butt; stroke-dashoffset: 0; stroke-linejoin: miter; stroke-miterlimit: 4; fill: rgb(126,210,179); fill-rule: nonzero; opacity: 1;"  paint-order="stroke"  transform=" translate(-2242.315, -91.664)" d="M 2567.48 103.941 C 2555.79 125.031 2540.88 151.922 2523.43 183.328 L 1859.5299999999997 183.328 C 1887.9499999999998 132.461 1915.5899999999997 82.8906 1941.7299999999998 35.94919999999999 L 1961.74 0 L 2002.88 0 L 2506.26 0 L 2625.1000000000004 0 L 2567.4800000000005 103.941" stroke-linecap="round" />
</g>
		<g transform="matrix(0.10192929894201816 0 0 -0.10192929894201816 -25.306496694829548 -2.842171e-14)"  >
<linearGradient id="SVGID_2_122205" gradientUnits="userSpaceOnUse" gradientTransform="matrix(-734.999 -1250 -1250 734.999 1573.54 1336.04)"  x1="0" y1="0" x2="1" y2="0">
<stop offset="0%" style="stop-color:rgb(126,210,179);stop-opacity: 1"/>
<stop offset="100%" style="stop-color:rgb(36,55,108);stop-opacity: 1"/>
</linearGradient>
<path style="stroke: none; stroke-width: 1; stroke-dasharray: none; stroke-linecap: butt; stroke-dashoffset: 0; stroke-linejoin: miter; stroke-miterlimit: 4; fill: url(#SVGID_2_122205); fill-rule: nonzero; opacity: 1;"  paint-order="stroke"  transform=" translate(-1064.275, -805.45)" d="M 2128.55 888.633 C 2063.44 1003.57 2003.3000000000002 1108.64 1957.6100000000001 1186.45 C 1872.0000000000002 1332.21 1762.93 1443.53 1633.44 1517.3200000000002 C 1505.14 1590.43 1389.3000000000002 1608.5300000000002 1314.7 1610.8300000000002 L 1312.54 1610.9 L 1310.3799999999999 1610.8300000000002 C 1241.03 1608.69 1132.9399999999998 1592.65 1011.8499999999999 1528.4 C 890.7029999999999 1464.1100000000001 786.2699999999999 1367.27 701.4449999999999 1240.5300000000002 C 689.5269999999999 1222.7300000000002 678.102 1204.5300000000002 667.4799999999999 1186.4600000000003 C 499.703 900.762 130.012 234.578 57.6016 103.941 L 0 0 L 118.828 0 L 622.203 0 L 663.3399999999999 0 L 683.3589999999999 35.9492 C 841.578 320.059 1054.03 699.328 1167.61 892.715 C 1200.9199999999998 949.453 1239.4399999999998 991.289 1278.1599999999999 1013.44 L 1278.1699999999998 1013.48 C 1278.1699999999998 1013.48 1735.0299999999997 1293.33 2128.5499999999997 888.633" stroke-linecap="round" />
</g>
		<g transform="matrix(0.10192929894201816 0 0 -0.10192929894201816 28.794580940965375 24.748790535668263)"  >
<linearGradient id="SVGID_3_122206" gradientUnits="userSpaceOnUse" gradientTransform="matrix(1445.01 0 0 -1445.01 872.539 562.65)"  x1="0" y1="0" x2="1" y2="0">
<stop offset="0%" style="stop-color:rgb(126,210,179);stop-opacity: 1"/>
<stop offset="100%" style="stop-color:rgb(36,55,108);stop-opacity: 1"/>
</linearGradient>
<path style="stroke: none; stroke-width: 1; stroke-dasharray: none; stroke-linecap: butt; stroke-dashoffset: 0; stroke-linejoin: miter; stroke-miterlimit: 4; fill: url(#SVGID_3_122206); fill-rule: nonzero; opacity: 1;"  paint-order="stroke"  transform=" translate(-1595.0456243184308, -562.6465000000001)" d="M 2266.78 643.332 L 2128.55 888.633 C 2128.55 888.633 2255.04 643.3320000000001 1737.5400000000002 643.3320000000001 L 1105.87 643.3320000000001 L 872.539 236.66 L 1951.63 236.66 C 1951.63 236.66 2097.98 244.75 2205.58 307.39099999999996 L 2205.58 307.39099999999996 L 2205.58 307.39099999999996 C 2302.45 363.80099999999993 2367.92 464.441 2266.7799999999997 643.3319999999999" stroke-linecap="round" />
</g>
		<g transform="matrix(0.10192929894201816 0 0 -0.10192929894201816 47.093884343685886 -6.761546447381932)"  >
<linearGradient id="SVGID_4_122207" gradientUnits="userSpaceOnUse" gradientTransform="matrix(-324.522 503.008 503.008 324.522 1932.08 596.52)"  x1="0" y1="0" x2="1" y2="0">
<stop offset="0%" style="stop-color:rgb(126,210,179);stop-opacity: 1"/>
<stop offset="100%" style="stop-color:rgb(36,55,108);stop-opacity: 1"/>
</linearGradient>
<path style="stroke: none; stroke-width: 1; stroke-dasharray: none; stroke-linecap: butt; stroke-dashoffset: 0; stroke-linejoin: miter; stroke-miterlimit: 4; fill: url(#SVGID_4_122207); fill-rule: nonzero; opacity: 1;"  paint-order="stroke"  transform=" translate(-1774.5749999999998, -871.7856514521714)" d="M 2270.99 635.832 C 2223.25 720.93 2174.66 807.258 2128.5499999999997 888.633 C 1735.0299999999997 1293.33 1278.1699999999996 1013.48 1278.1699999999996 1013.48 L 1278.1599999999996 1013.44 C 1286.1399999999996 1018.0100000000001 1294.1299999999997 1021.8000000000001 1302.0799999999997 1024.64 C 1304.5399999999997 1025.5200000000002 1310.0299999999997 1026.48 1312.7899999999997 1026.65 C 1314.9599999999998 1026.5600000000002 1319.8199999999997 1025.7800000000002 1323.0099999999998 1024.64 C 1356.7399999999998 1012.5800000000002 1391.4099999999999 984.5430000000001 1423.2399999999998 943.5740000000001 C 1427.9799999999998 937.4730000000001 1433.1099999999997 930.3320000000001 1439.3599999999997 921.094 L 1439.5199999999998 920.859 L 1439.6899999999998 920.629 L 1440.1 920.0120000000001 L 1442 917.2270000000001 L 1442.56 916.426 L 1444.8999999999999 912.9300000000001 L 1445.06 912.6880000000001 L 1445.9299999999998 911.3480000000001 L 1446.9599999999998 909.7660000000001 C 1451.1999999999998 903.1450000000001 1454.4899999999998 897.797 1457.4399999999998 892.7660000000001 C 1496.8899999999999 825.605 1548.2599999999998 736.0160000000001 1605.12 635.8320000000001 L 2270.99 635.8320000000001" stroke-linecap="round" />
</g>
		<g transform="matrix(0.10192929894201816 0 0 -0.10192929894201816 94.73818690165876 72.72145833018283)"  >
<linearGradient id="SVGID_5_122208" gradientUnits="userSpaceOnUse" gradientTransform="matrix(-215.856 334.577 334.577 215.856 2342.42 -63.08)"  x1="0" y1="0" x2="1" y2="0">
<stop offset="0%" style="stop-color:rgb(126,210,179);stop-opacity: 1"/>
<stop offset="100%" style="stop-color:rgb(36,55,108);stop-opacity: 1"/>
</linearGradient>
<path style="stroke: none; stroke-width: 1; stroke-dasharray: none; stroke-linecap: butt; stroke-dashoffset: 0; stroke-linejoin: miter; stroke-miterlimit: 4; fill: url(#SVGID_5_122208); fill-rule: nonzero; opacity: 1;"  paint-order="stroke"  transform=" translate(-2242, -92)" d="M 1961 0 L 1961 1 L 1960 1 L 1960 3 L 1959 3 L 1959 4 L 1958 4 L 1958 6 L 1957 6 L 1957 8 L 1956 8 L 1956 10 L 1955 10 L 1955 12 L 1954 12 L 1954 13 L 1953 13 L 1953 15 L 1952 15 L 1952 17 L 1951 17 L 1951 19 L 1950 19 L 1950 21 L 1949 21 L 1949 22 L 1948 22 L 1948 24 L 1947 24 L 1947 26 L 1946 26 L 1946 28 L 1945 28 L 1945 30 L 1944 30 L 1944 31 L 1943 31 L 1943 33 L 1942 33 L 1942 35 L 1941 35 L 1941 37 L 1940 37 L 1940 39 L 1939 39 L 1939 40 L 1938 40 L 1938 42 L 1937 42 L 1937 44 L 1936 44 L 1936 46 L 1935 46 L 1935 48 L 1934 48 L 1934 49 L 1933 49 L 1933 51 L 1932 51 L 1932 53 L 1931 53 L 1931 55 L 1930 55 L 1930 57 L 1929 57 L 1929 58 L 1928 58 L 1928 60 L 1927 60 L 1927 62 L 1926 62 L 1926 64 L 1925 64 L 1925 65 L 1924 65 L 1924 67 L 1923 67 L 1923 69 L 1922 69 L 1922 71 L 1921 71 L 1921 73 L 1920 73 L 1920 74 L 1919 74 L 1919 76 L 1918 76 L 1918 78 L 1917 78 L 1917 80 L 1916 80 L 1916 82 L 1915 82 L 1915 83 L 1914 83 L 1914 85 L 1913 85 L 1913 87 L 1912 87 L 1912 89 L 1911 89 L 1911 91 L 1910 91 L 1910 92 L 1909 92 L 1909 94 L 1908 94 L 1908 96 L 1907 96 L 1907 98 L 1906 98 L 1906 100 L 1905 100 L 1905 101 L 1904 101 L 1904 103 L 1903 103 L 1903 105 L 1902 105 L 1902 107 L 1901 107 L 1901 109 L 1900 109 L 1900 110 L 1899 110 L 1899 112 L 1898 112 L 1898 114 L 1897 114 L 1897 116 L 1896 116 L 1896 118 L 1895 118 L 1895 119 L 1894 119 L 1894 121 L 1893 121 L 1893 123 L 1892 123 L 1892 125 L 1891 125 L 1891 126 L 1890 126 L 1890 128 L 1889 128 L 1889 130 L 1888 130 L 1888 132 L 1887 132 L 1887 134 L 1886 134 L 1886 135 L 1885 135 L 1885 137 L 1884 137 L 1884 139 L 1883 139 L 1883 141 L 1882 141 L 1882 143 L 1881 143 L 1881 144 L 1880 144 L 1880 146 L 1879 146 L 1879 148 L 1878 148 L 1878 150 L 1877 150 L 1877 152 L 1876 152 L 1876 153 L 1875 153 L 1875 155 L 1874 155 L 1874 157 L 1873 157 L 1873 159 L 1872 159 L 1872 160 L 1871 160 L 1871 162 L 1870 162 L 1870 164 L 1869 164 L 1869 166 L 1868 166 L 1868 168 L 1867 168 L 1867 169 L 1866 169 L 1866 171 L 1865 171 L 1865 173 L 1864 173 L 1864 175 L 1863 175 L 1863 177 L 1862 177 L 1862 178 L 1861 178 L 1861 180 L 1860 180 L 1860 182 L 1859 182 L 1859 184 L 2524 184 L 2524 183 L 2525 183 L 2525 181 L 2526 181 L 2526 179 L 2527 179 L 2527 177 L 2528 177 L 2528 176 L 2529 176 L 2529 174 L 2530 174 L 2530 172 L 2531 172 L 2531 170 L 2532 170 L 2532 168 L 2533 168 L 2533 167 L 2534 167 L 2534 165 L 2535 165 L 2535 163 L 2536 163 L 2536 161 L 2537 161 L 2537 159 L 2538 159 L 2538 158 L 2539 158 L 2539 156 L 2540 156 L 2540 154 L 2541 154 L 2541 152 L 2542 152 L 2542 150 L 2543 150 L 2543 149 L 2544 149 L 2544 147 L 2545 147 L 2545 145 L 2546 145 L 2546 143 L 2547 143 L 2547 141 L 2548 141 L 2548 140 L 2549 140 L 2549 138 L 2550 138 L 2550 136 L 2551 136 L 2551 134 L 2552 134 L 2552 132 L 2553 132 L 2553 131 L 2554 131 L 2554 129 L 2555 129 L 2555 127 L 2556 127 L 2556 125 L 2557 125 L 2557 123 L 2558 123 L 2558 122 L 2559 122 L 2559 120 L 2560 120 L 2560 118 L 2561 118 L 2561 116 L 2562 116 L 2562 114 L 2563 114 L 2563 113 L 2564 113 L 2564 111 L 2565 111 L 2565 109 L 2566 109 L 2566 107 L 2567 107 L 2567 105 L 2568 105 L 2568 104 L 2569 104 L 2569 102 L 2570 102 L 2570 100 L 2571 100 L 2571 98 L 2572 98 L 2572 96 L 2573 96 L 2573 94 L 2574 94 L 2574 93 L 2575 93 L 2575 91 L 2576 91 L 2576 89 L 2577 89 L 2577 87 L 2578 87 L 2578 85 L 2579 85 L 2579 84 L 2580 84 L 2580 82 L 2581 82 L 2581 80 L 2582 80 L 2582 78 L 2583 78 L 2583 76 L 2584 76 L 2584 75 L 2585 75 L 2585 73 L 2586 73 L 2586 71 L 2587 71 L 2587 69 L 2588 69 L 2588 67 L 2589 67 L 2589 66 L 2590 66 L 2590 64 L 2591 64 L 2591 62 L 2592 62 L 2592 60 L 2593 60 L 2593 58 L 2594 58 L 2594 57 L 2595 57 L 2595 55 L 2596 55 L 2596 53 L 2597 53 L 2597 51 L 2598 51 L 2598 49 L 2599 49 L 2599 48 L 2600 48 L 2600 46 L 2601 46 L 2601 44 L 2602 44 L 2602 42 L 2603 42 L 2603 40 L 2604 40 L 2604 39 L 2605 39 L 2605 37 L 2606 37 L 2606 35 L 2607 35 L 2607 33 L 2608 33 L 2608 31 L 2609 31 L 2609 30 L 2610 30 L 2610 28 L 2611 28 L 2611 26 L 2612 26 L 2612 24 L 2613 24 L 2613 22 L 2614 22 L 2614 21 L 2615 21 L 2615 19 L 2616 19 L 2616 17 L 2617 17 L 2617 15 L 2618 15 L 2618 13 L 2619 13 L 2619 12 L 2620 12 L 2620 10 L 2621 10 L 2621 8 L 2622 8 L 2622 6 L 2623 6 L 2623 4 L 2624 4 L 2624 2 L 2625 2 L 2625 0" stroke-linecap="round" />
</g>
</g>
</g>
</svg>